HIERARCHY
ROOT Hips
{
	OFFSET 0.000000 0.000000 0.000000
	CHANNELS 6 Xposition Yposition Zposition Xrotation Yrotation Zrotation
	JOINT LeftUpLeg_virtual
	{
		OFFSET 0.000000 0.000000 0.000000
		CHANNELS 3 Xrotation Yrotation Zrotation
		JOINT LeftUpLeg
		{
			OFFSET 10.205400 -3.823500 0.155100
			CHANNELS 3 Xrotation Yrotation Zrotation
			JOINT LeftLeg
			{
				OFFSET 0.708757 -12.982077 0.567790
				CHANNELS 3 Xrotation Yrotation Zrotation
				JOINT LeftFoot
				{
					OFFSET -0.708756 -10.717838 -2.184338
					CHANNELS 3 Xrotation Yrotation Zrotation
					JOINT LeftToeBase
					{
						OFFSET 0.108149 -7.191104 7.560241
						CHANNELS 3 Xrotation Yrotation Zrotation
						JOINT LeftToe_End
						{
							OFFSET 0.070230 0.081724 4.490308
							CHANNELS 3 Xrotation Yrotation Zrotation
							End Site
							{
								OFFSET 0 0 0
							}
						}
					}
				}
			}
		}
	}
	JOINT RightUpLeg_virtual
	{
		OFFSET 0.000000 0.000000 0.000000
		CHANNELS 3 Xrotation Yrotation Zrotation
		JOINT RightUpLeg
		{
			OFFSET -10.205400 -3.823500 0.005500
			CHANNELS 3 Xrotation Yrotation Zrotation
			JOINT RightLeg
			{
				OFFSET -0.708756 -12.982134 0.610632
				CHANNELS 3 Xrotation Yrotation Zrotation
				JOINT RightFoot
				{
					OFFSET 0.708754 -10.717769 -1.945823
					CHANNELS 3 Xrotation Yrotation Zrotation
					JOINT RightToeBase
					{
						OFFSET -0.108140 -7.191069 7.372968
						CHANNELS 3 Xrotation Yrotation Zrotation
						JOINT RightToe_End
						{
							OFFSET -0.070227 0.081735 4.479403
							CHANNELS 3 Xrotation Yrotation Zrotation
							End Site
							{
								OFFSET 0 0 0
							}
						}
					}
				}
			}
		}
	}
	JOINT Spine_virtual
	{
		OFFSET 0.000000 0.000000 0.000000
		CHANNELS 3 Xrotation Yrotation Zrotation
		JOINT Spine
		{
			OFFSET 0.000000 6.876099 0.125700
			CHANNELS 3 Xrotation Yrotation Zrotation
			JOINT Spine1
			{
				OFFSET 0.000000 5.730043 0.104720
				CHANNELS 3 Xrotation Yrotation Zrotation
				JOINT Spine1_split
				{
					OFFSET 0.000000 5.730043 0.104720
					CHANNELS 3 Xrotation Yrotation Zrotation
					JOINT Spine2
					{
						OFFSET 0.000000 5.730043 0.104720
						CHANNELS 3 Xrotation Yrotation Zrotation
						JOINT Neck_virtual
						{
							OFFSET 0.000000 0.000000 0.000000
							CHANNELS 3 Xrotation Yrotation Zrotation
							JOINT Neck
							{
								OFFSET 0.000000 10.314075 0.188496
								CHANNELS 3 Xrotation Yrotation Zrotation
								JOINT Head
								{
									OFFSET 0.000000 7.643700 -2.377400
									CHANNELS 3 Xrotation Yrotation Zrotation
									JOINT HeadTop_End
									{
										OFFSET 0.000000 43.788605 -13.619600
										CHANNELS 3 Xrotation Yrotation Zrotation
										End Site
										{
											OFFSET 0 0 0
										}
									}
								}
							}
						}
						JOINT LeftShoulder_virtual
						{
							OFFSET 0.000000 0.000000 0.000000
							CHANNELS 3 Xrotation Yrotation Zrotation
							JOINT LeftShoulder
							{
								OFFSET 2.196100 4.412489 0.087492
								CHANNELS 3 Xrotation Yrotation Zrotation
								JOINT LeftShoulder_split
								{
									OFFSET 2.196100 4.412489 0.087492
									CHANNELS 3 Xrotation Yrotation Zrotation
									JOINT LeftArm
									{
										OFFSET 8.771219 -2.981674 -0.026999
										CHANNELS 3 Xrotation Yrotation Zrotation
										JOINT LeftForeArm
										{
											OFFSET 8.512804 0.000000 -0.000000
											CHANNELS 3 Xrotation Yrotation Zrotation
											JOINT LeftHand
											{
												OFFSET 18.484802 0.000000 -0.000000
												CHANNELS 3 Xrotation Yrotation Zrotation
												End Site
												{
													OFFSET 0 0 0
												}
											}
										}
									}
								}
							}
						}
						JOINT RightShoulder_virtual
						{
							OFFSET 0.000000 0.000000 0.000000
							CHANNELS 3 Xrotation Yrotation Zrotation
							JOINT RightShoulder
							{
								OFFSET -2.196100 4.412496 0.070690
								CHANNELS 3 Xrotation Yrotation Zrotation
								JOINT RightShoulder_split
								{
									OFFSET -2.196100 4.412496 0.070690
									CHANNELS 3 Xrotation Yrotation Zrotation
									JOINT RightArm
									{
										OFFSET -8.771282 -2.981682 -0.094208
										CHANNELS 3 Xrotation Yrotation Zrotation
										JOINT RightForeArm
										{
											OFFSET -8.494598 0.000000 0.000000
											CHANNELS 3 Xrotation Yrotation Zrotation
											JOINT RightHand
											{
												OFFSET -18.483803 0.000000 0.000001
												CHANNELS 3 Xrotation Yrotation Zrotation
												End Site
												{
													OFFSET 0 0 0
												}
											}
										}
									}
								}
							}
						}
					}
				}
			}
		}
	}
}
MOTION
Frames: 11
Frame Time: 0.03333333
2.600212 16.375534 -0.098476 0.000000 0.000000 0.000000 2.858241 -28.259645 8.958791 -81.976934 -19.851574 52.928956 72.006204 12.314375 -6.441504 44.743726 -3.580278 -6.030087 -1.576598 0.930718 -0.905661 0.000000 0.000000 0.000000 -0.917229 -25.229580 8.650077 -0.072503 -4.825188 -22.815545 111.597074 15.795026 -3.065276 18.681028 6.015153 28.720570 43.295589 0.767810 -7.872368 0.000000 0.000000 0.000000 0.715841 -30.412544 8.681832 1.392492 0.360412 -6.214506 1.742176 -1.220546 -3.360950 1.138701 1.436801 -0.270375 0.000000 0.000000 0.000000 2.128471 -1.468241 -2.967490 -4.187419 0.983032 4.293222 2.755039 20.591303 3.207557 0.000000 0.000000 0.000000 1.567085 -0.908221 -3.028172 0.439168 4.708542 2.674001 -3.445853 -0.169367 -0.405787 0.619073 -14.217449 -54.870735 -20.325675 -88.873950 -19.632513 0.000000 0.000000 0.000000 2.722507 -1.345613 -3.490384 4.495928 16.503649 8.533045 -1.695671 3.279544 0.495766 10.881526 21.823264 34.928836 179.192540 53.013688 -179.051606 0.000000 0.000000 0.000000 
2.594106 16.380234 -0.105825 0.000000 0.000000 0.000000 2.869983 -28.222463 8.960919 -81.943207 -19.858792 52.936463 72.012460 12.333723 -6.456699 44.764476 -3.555748 -6.027634 -1.574053 0.931296 -0.919230 0.000000 0.000000 0.000000 -0.902266 -25.187552 8.652100 -0.095198 -4.802061 -22.821931 111.602306 15.782913 -3.068116 18.665058 6.003324 28.725337 43.316742 0.767930 -7.875452 0.000000 0.000000 0.000000 0.733383 -30.383830 8.688029 1.398025 0.355836 -6.225221 1.749769 -1.230360 -3.370639 1.172632 1.397307 -0.266364 0.000000 0.000000 0.000000 2.137980 -1.476072 -2.974350 -4.186124 0.984393 4.297049 2.766026 20.605082 3.192791 0.000000 0.000000 0.000000 1.570058 -0.917193 -3.032612 0.427896 4.719492 2.675632 -3.441114 -0.215153 -0.379290 0.603498 -14.217253 -54.840207 -22.139882 -88.917547 -21.436129 0.000000 0.000000 0.000000 2.725198 -1.357153 -3.494142 4.502809 16.488609 8.523496 -1.699240 3.254494 0.484924 10.838000 21.770376 34.913885 179.207061 52.999772 -179.061277 0.000000 0.000000 0.000000 
2.585372 16.387375 -0.116405 0.000000 0.000000 0.000000 2.892462 -28.172568 8.970522 -81.874010 -19.881292 52.942664 71.982933 12.363672 -6.486282 44.791216 -3.530735 -6.037914 -1.582235 0.930287 -0.940557 0.000000 0.000000 0.000000 -0.874919 -25.133035 8.663370 -0.146146 -4.782672 -22.834021 111.607825 15.756616 -3.062185 18.663965 5.975096 28.704867 43.351006 0.774342 -7.877291 0.000000 0.000000 0.000000 0.764659 -30.342303 8.705601 1.415421 0.341543 -6.244633 1.761471 -1.239177 -3.385078 1.190557 1.391424 -0.246858 0.000000 0.000000 0.000000 2.151231 -1.481329 -2.988617 -4.166546 0.983379 4.319076 2.757908 20.617341 3.197718 0.000000 0.000000 0.000000 1.576253 -0.924017 -3.043603 0.422439 4.735886 2.677026 -3.406722 -0.263982 -0.378002 0.531198 -14.160951 -54.791771 -26.357355 -89.045709 -25.632523 0.000000 0.000000 0.000000 2.734015 -1.366797 -3.504659 4.506159 16.486729 8.528572 -1.691823 3.257015 0.497603 10.774763 21.642925 34.891345 179.229150 52.977078 -179.080771 0.000000 0.000000 0.000000 
2.576239 16.395130 -0.129421 0.000000 0.000000 0.000000 2.921468 -28.126941 8.986726 -81.779200 -19.913481 52.949631 71.921906 12.400930 -6.530979 44.811956 -3.510943 -6.065642 -1.607507 0.927285 -0.960842 0.000000 0.000000 0.000000 -0.845855 -25.081290 8.683033 -0.222117 -4.769129 -22.849483 111.619184 15.723606 -3.055106 18.691716 5.944811 28.679951 43.381847 0.786115 -7.878898 0.000000 0.000000 0.000000 0.802016 -30.304614 8.732993 1.437991 0.321329 -6.269981 1.773303 -1.245806 -3.402249 1.173455 1.406412 -0.230954 0.000000 0.000000 0.000000 2.165488 -1.483067 -3.008242 -4.129857 0.983924 4.349314 2.726971 20.628505 3.212012 0.000000 0.000000 0.000000 1.582668 -0.927681 -3.058788 0.422794 4.757803 2.665809 -3.356443 -0.315483 -0.409200 0.431682 -14.056025 -54.734151 -34.200024 -89.225698 -33.446948 0.000000 0.000000 0.000000 2.744951 -1.372245 -3.519888 4.507198 16.494832 8.538084 -1.682366 3.291581 0.519796 10.700930 21.496140 34.855729 179.247059 52.971672 -179.099622 0.000000 0.000000 0.000000 
2.567449 16.401871 -0.140285 0.000000 0.000000 0.000000 2.950142 -28.093850 9.008414 -81.664235 -19.951396 52.961362 71.844069 12.439076 -6.588533 44.824681 -3.506433 -6.120769 -1.647193 0.922542 -0.973159 0.000000 0.000000 0.000000 -0.818709 -25.047299 8.709370 -0.310234 -4.758986 -22.862137 111.631259 15.692968 -3.055655 18.742329 5.928475 28.675689 43.387308 0.800842 -7.883200 0.000000 0.000000 0.000000 0.831283 -30.279605 8.764250 1.463703 0.298241 -6.298150 1.782802 -1.249334 -3.418744 1.157953 1.424566 -0.229568 0.000000 0.000000 0.000000 2.177083 -1.482939 -3.027964 -4.077679 0.991944 4.370376 2.673662 20.646198 3.219992 0.000000 0.000000 0.000000 1.587198 -0.929251 -3.073550 0.428550 4.783555 2.627485 -3.304282 -0.364544 -0.465112 0.339612 -13.923079 -54.669906 -47.513979 -89.404881 -46.732188 0.000000 0.000000 0.000000 2.754019 -1.374072 -3.535856 4.508033 16.509532 8.543358 -1.672361 3.344002 0.542977 10.623174 21.384098 34.808399 179.248807 52.995950 -179.104595 0.000000 0.000000 0.000000 
2.560080 16.406944 -0.147789 0.000000 0.000000 0.000000 2.969323 -28.081778 9.031001 -81.537624 -19.986928 52.980514 71.768247 12.478571 -6.657598 44.827232 -3.512572 -6.198926 -1.688383 0.915937 -0.978224 0.000000 0.000000 0.000000 -0.798930 -25.040273 8.737799 -0.382492 -4.753976 -22.859462 111.636020 15.665773 -3.065571 18.792261 5.925633 28.689434 43.370260 0.817163 -7.891245 0.000000 0.000000 0.000000 0.842760 -30.274158 8.794313 1.489675 0.275392 -6.325201 1.787717 -1.251887 -3.430316 1.147518 1.446699 -0.242191 0.000000 0.000000 0.000000 2.182766 -1.484299 -3.042105 -4.018249 1.011688 4.367889 2.605005 20.678755 3.208540 0.000000 0.000000 0.000000 1.588098 -0.930775 -3.084159 0.438910 4.809923 2.549311 -3.265644 -0.409744 -0.519705 0.287927 -13.773376 -54.600088 -66.583560 -89.528535 -65.776156 0.000000 0.000000 0.000000 2.760028 -1.374229 -3.548140 4.512836 16.529620 8.538641 -1.668584 3.395893 0.574115 10.552594 21.353709 34.760349 179.229054 53.044875 -179.087560 0.000000 0.000000 0.000000 
2.554373 16.410141 -0.153660 0.000000 0.000000 0.000000 2.972727 -28.095322 9.051269 -81.406245 -20.015559 53.009744 71.709589 12.522981 -6.733475 44.819162 -3.516251 -6.283134 -1.726629 0.907837 -0.977113 0.000000 0.000000 0.000000 -0.794133 -25.056073 8.762244 -0.415541 -4.758273 -22.830044 111.624484 15.634868 -3.075833 18.813428 5.920070 28.691869 43.361442 0.835118 -7.899684 0.000000 0.000000 0.000000 0.830070 -30.283805 8.817064 1.513735 0.254362 -6.348158 1.786341 -1.255614 -3.433045 1.151674 1.461132 -0.257500 0.000000 0.000000 0.000000 2.181896 -1.488004 -3.046422 -3.958675 1.047339 4.330752 2.531092 20.734800 3.171969 0.000000 0.000000 0.000000 1.585337 -0.934172 -3.086294 0.452985 4.837464 2.430351 -3.234718 -0.431406 -0.558157 0.280499 -13.614172 -54.531418 -84.769758 -89.580820 -83.944384 0.000000 0.000000 0.000000 2.763221 -1.373985 -3.552007 4.522424 16.551956 8.525509 -1.679074 3.447357 0.618062 10.496261 21.413746 34.708194 179.196023 53.104796 -179.052098 0.000000 0.000000 0.000000 
2.549811 16.412376 -0.155954 0.000000 0.000000 0.000000 2.956265 -28.130098 9.065089 -81.273705 -20.037678 53.051234 71.677569 12.575868 -6.807558 44.802066 -3.509550 -6.363216 -1.755450 0.898733 -0.976476 0.000000 0.000000 0.000000 -0.804758 -25.082536 8.778205 -0.399019 -4.773258 -22.772684 111.591344 15.595509 -3.077121 18.790446 5.902820 28.664682 43.375359 0.854067 -7.906647 0.000000 0.000000 0.000000 0.793758 -30.300536 8.828913 1.535441 0.236136 -6.364616 1.776677 -1.261523 -3.425294 1.166890 1.463396 -0.265092 0.000000 0.000000 0.000000 2.174370 -1.494259 -3.038823 -3.907858 1.094512 4.260600 2.466950 20.817163 3.113991 0.000000 0.000000 0.000000 1.577926 -0.939715 -3.077560 0.470614 4.863516 2.276856 -3.200981 -0.436430 -0.563979 0.310448 -13.447718 -54.471223 -95.268093 -89.600416 -94.433574 0.000000 0.000000 0.000000 2.761692 -1.375196 -3.545396 4.534344 16.572942 8.512553 -1.685828 3.510917 0.666260 10.446067 21.531029 34.664532 179.163635 53.174778 -179.009778 0.000000 0.000000 0.000000 
2.546316 16.415310 -0.154327 0.000000 0.000000 0.000000 2.924894 -28.178569 9.068779 -81.148378 -20.050615 53.107398 71.672132 12.636398 -6.872367 44.778539 -3.492140 -6.431039 -1.780582 0.888791 -0.984079 0.000000 0.000000 0.000000 -0.828413 -25.110941 8.781712 -0.335459 -4.801884 -22.695375 111.535063 15.550201 -3.066917 18.746614 5.882274 28.612962 43.380287 0.873424 -7.917064 0.000000 0.000000 0.000000 0.742343 -30.316638 8.828913 1.553341 0.223584 -6.371054 1.758862 -1.267604 -3.409197 1.182660 1.455661 -0.268793 0.000000 0.000000 0.000000 2.159285 -1.499495 -3.021634 -3.876702 1.145846 4.171548 2.422219 20.919700 3.047704 0.000000 0.000000 0.000000 1.565667 -0.945228 -3.060183 0.491010 4.889076 2.106463 -3.158152 -0.431138 -0.535069 0.356248 -13.274392 -54.437055 -99.088771 -89.616918 -98.254983 0.000000 0.000000 0.000000 2.753889 -1.375780 -3.529862 4.546651 16.596514 8.505069 -1.670780 3.574440 0.708309 10.405994 21.659440 34.627112 179.141532 53.265920 -178.971597 0.000000 0.000000 0.000000 
2.543018 16.420877 -0.147484 0.000000 0.000000 0.000000 2.889624 -28.233731 9.060084 -81.037517 -20.058659 53.180700 71.689030 12.693814 -6.920634 44.754159 -3.477500 -6.488454 -1.820600 0.878262 -0.995855 0.000000 0.000000 0.000000 -0.856096 -25.136752 8.771031 -0.239248 -4.840173 -22.607856 111.466290 15.501304 -3.047329 18.714472 5.867257 28.552610 43.345374 0.890447 -7.936910 0.000000 0.000000 0.000000 0.683326 -30.326060 8.814775 1.569099 0.217831 -6.364472 1.733841 -1.268874 -3.389578 1.192792 1.435145 -0.274827 0.000000 0.000000 0.000000 2.138772 -1.499813 -3.000307 -3.874322 1.188169 4.082793 2.401619 21.021914 2.994731 0.000000 0.000000 0.000000 1.547760 -0.946543 -3.039383 0.511458 4.913932 1.948860 -3.096657 -0.442205 -0.493055 0.396110 -13.098851 -54.447843 -101.668657 -89.636302 -100.845899 0.000000 0.000000 0.000000 2.739662 -1.372317 -3.509500 4.555863 16.621559 8.507334 -1.638651 3.633924 0.731743 10.379186 21.751502 34.586490 179.133158 53.389953 -178.942828 0.000000 0.000000 0.000000 
2.540671 16.429657 -0.138706 0.000000 0.000000 0.000000 2.858513 -28.284264 9.036019 -80.954407 -20.067043 53.264841 71.717096 12.735603 -6.947922 44.739290 -3.482689 -6.545565 -1.868048 0.868125 -1.012414 0.000000 0.000000 0.000000 -0.876163 -25.156345 8.747072 -0.128513 -4.885190 -22.517686 111.392210 15.450422 -3.020799 18.697165 5.859201 28.490903 43.276219 0.901230 -7.967115 0.000000 0.000000 0.000000 0.632313 -30.326774 8.788532 1.583095 0.219680 -6.344827 1.705541 -1.263166 -3.372121 1.194319 1.402956 -0.277892 0.000000 0.000000 0.000000 2.116265 -1.493233 -2.980419 -3.916421 1.211137 4.019802 2.400515 21.110353 2.973355 0.000000 0.000000 0.000000 1.524010 -0.941560 -3.021883 0.530516 4.930585 1.839503 -3.039193 -0.460130 -0.459925 0.408525 -12.925956 -54.513362 -106.525474 -89.643364 -105.721459 0.000000 0.000000 0.000000 2.719607 -1.363167 -3.490203 4.560222 16.647719 8.518968 -1.601773 3.701163 0.735714 10.373194 21.778878 34.529489 179.138827 53.528169 -178.924892 0.000000 0.000000 0.000000 
